<svg id="Layer_1" data-name="Layer 1" xmlns="http://www.w3.org/2000/svg" viewBox="0 0 1079.98 776.35"><defs><style>.cls-1{fill:#fff;}.cls-2{fill:#03a9f5;}.cls-3{fill:none;stroke:#03a9f5;stroke-miterlimit:10;stroke-width:12px;}</style></defs><title>Logo WKK no fill</title><path class="cls-1" d="M355.73,340.49c-.82-1.6-.44-3.35-.44-5V6c0-6.1.31-5.88-5.92-5.88H6.21C-.51.09,0-.24,0,6.48Q0,388.32,0,770.15c0,6.77-.68,6.08,5.93,6.08H344.29a10.68,10.68,0,0,1,1.6,0,6,6,0,0,0,5.61-2.33c3.15-3.63,6.45-7.13,9.65-10.71q15.18-17,30.35-34.09c7.65-8.56,15.37-17,23-25.62q18.93-21.21,37.8-42.47c2.31-2.59,4.57-5.23,7-7.73,1.87-2,2.2-1.89,4.25,0,.4.35.76.75,1.14,1.12,30.05,29.67,59.6,59.83,89.9,89.24q14.67,14.24,28.91,28.91a11.49,11.49,0,0,0,9.09,3.78q171.57-.15,343.15-.08h2c3.58-.08,3.62-.08,3.65-3.56q.08-7.82.07-15.63V559.82q-.08-57.14-.12-114.25c0-.79-.54-1.89.83-2.4a16.58,16.58,0,0,1,1.3,1.48A169.07,169.07,0,0,0,954,459.23a12.11,12.11,0,0,1,2.72,8.49c-.54,31.37.92,62.76-.88,94.11V772.69c.12,2.82.57,3.11,3,1.68,4.61-2.7,9.17-5.47,13.75-8.21L1010,743.73c2.1-1.25,3.33-2.75,3.39-5.4.31-12.65-1-25.34.91-38,.28-31.38-.67-62.78.69-94.15.16-3.9-.75-7.69-.74-11.56V492.45c0-4.4,0-4.32,4-5.55,9.64-3,18.06-7.94,24.61-15.69a31,31,0,0,0,7.18-24.65c-1.28-10.39-5.73-19.6-11.42-28.27-5.89-9-13.25-16.69-21-24a10.13,10.13,0,0,1-3.41-8.09c.11-28.06,0-56.12.07-84.18,0-8.44-.75-6.43,5.36-12.9.64-.68,1.34-1.3,2-1.93,7.65-7.05,15.82-13.48,23.87-20.06,11.28-9.23,22.26-18.61,29-32,4.18-8.25,6.36-16.59,4.75-25.84-1.52-8.71-5.63-16.14-11.32-22.63-7.79-8.86-17.64-12.51-29.48-10.37a66.51,66.51,0,0,0-19.87,7.19c-4.67,2.52-4.69,2.5-4.69-3,0-24.59.11-49.18,0-73.77-.12-21.22.68-42.46-.69-63.68a6,6,0,0,0-2.88-5.28c-2-1.28-3.72-2.6-5.58-3.89Q983,18.73,961.07,3.62C959.8,2.75,958.5,1,956.91,1.7c-1.89.9-.71,3.12-1,4.75a8,8,0,0,0,0,1.2v229.7c0,1.47-.07,2.94,0,4.41a6.69,6.69,0,0,1-1.46,4.47,106.89,106.89,0,0,1-10.1,11.88c-.63.62-1.15,1.54-2.58,1.26-.57-1.54-.28-3.27-.28-4.94q0-124.06,0-248.14c0-6.3.55-6.21-6-6.21H593.89c-5.75,0-5.5-.5-5.5,5.36V337a28.11,28.11,0,0,1-.16,4c-.16,1.14-.91,1.64-2,.87a20.81,20.81,0,0,1-1.83-1.55l-13.08-11.2-35.68-30.33q-11.89-10.11-23.74-20.28-15.37-13.11-30.79-26.2-9.3-7.89-18.69-15.71c-2.63-2.18-2.72-2.17-5.18.35-3.08,3.15-6.05,6.41-9.12,9.58q-27.6,28.47-55.25,56.91Q376,320.83,359,338.16C358.13,339.06,357.49,340.38,355.73,340.49ZM369.05,0c-.13,1.45-.26,2.23-.26,3,.11,100.31-.27,200.62.2,300.93a.57.57,0,0,0,.2.32,3.55,3.55,0,0,0,.54.3c1.36-.39,2.2-1.66,3.2-2.66,14.71-14.76,29.34-29.59,44.16-44.24a11.72,11.72,0,0,0,3.71-9.18q-.15-86.57-.07-173.12c0-11-.07-21.91,0-32.86a7.44,7.44,0,0,0-3.43-6.69C404.74,26.52,392.3,17,379.82,7.7,376.49,5.22,373.31,2.39,369.05,0Zm8.76,765.09a2.85,2.85,0,0,0,2.91-.2q10.9-5,21.82-10.06l66.25-30.43a15,15,0,0,0,3.48-1.94q10.19-8.73,20.23-17.61c2.54-2.25,2.49-2.42.19-4.71q-13.62-13.57-27.3-27.11c-2.67-2.63-3.2-2.63-5.78.2-5.13,5.62-10.19,11.3-15.24,17C435,700.79,425.66,711.43,416.24,722c-10.85,12.14-21.8,24.19-32.68,36.31-1.93,2.14-3.74,4.4-5.75,6.79ZM482,235.47c1,2.2,2.82,3.37,4.4,4.69,3.9,3.24,7.85,6.42,11.76,9.65q20.37,16.8,40.72,33.64l28.68,23.7q2.31,1.92,4.64,3.82c.52.42,1.09.91,1.77.69,1-.32.8-1.26.83-2s0-1.61,0-2.41c0-10.15-.16-20.31.09-30.45a8.65,8.65,0,0,0-3.77-7.77c-5.28-4.08-10.4-8.35-15.57-12.57-4.32-3.52-8.43-6.93-14.33-8.15-18-3.73-35.91-8.1-53.86-12.12C485.81,235.8,484.17,235,482,235.47Z" transform="translate(0.02 0.01)"/><path class="cls-2" d="M369.05,0c4.26,2.39,7.44,5.22,10.82,7.73C392.4,17,404.79,26.54,417.35,35.81a7.44,7.44,0,0,1,3.43,6.69c-.12,11,0,21.91,0,32.86q0,86.57.07,173.12a11.72,11.72,0,0,1-3.71,9.18c-14.82,14.65-29.45,29.48-44.16,44.24-1,1-1.84,2.27-3.2,2.66a3.55,3.55,0,0,1-.54-.3.57.57,0,0,1-.2-.32c-.47-100.31-.09-200.62-.2-300.93A22.42,22.42,0,0,1,369.05,0Z" transform="translate(0.02 0.01)"/><path class="cls-2" d="M377.81,765.09c2-2.39,3.82-4.65,5.75-6.8,10.88-12.12,21.83-24.17,32.68-36.31,9.42-10.55,18.74-21.19,28.13-31.76,5.05-5.69,10.11-11.37,15.24-17,2.58-2.83,3.11-2.83,5.78-.2q13.68,13.53,27.3,27.11c2.3,2.29,2.35,2.46-.19,4.71q-10,8.91-20.23,17.61a15,15,0,0,1-3.48,1.94l-66.25,30.43q-10.92,5-21.82,10.06A2.85,2.85,0,0,1,377.81,765.09Z" transform="translate(0.02 0.01)"/><path class="cls-2" d="M482,235.47c2.13-.45,3.77.33,5.38.69,17.95,4,35.84,8.39,53.86,12.12,5.9,1.22,10,4.63,14.33,8.15,5.17,4.22,10.29,8.49,15.57,12.57a8.65,8.65,0,0,1,3.77,7.77c-.25,10.14-.09,20.3-.09,30.45v2.41c0,.81.15,1.71-.83,2-.68.22-1.25-.27-1.77-.69l-4.64-3.82-28.68-23.7-40.72-33.64c-3.91-3.23-7.86-6.41-11.76-9.65C484.86,238.84,483.08,237.67,482,235.47Z" transform="translate(0.02 0.01)"/><path class="cls-2" d="M1079.43,209.29c-1.52-8.71-5.63-16.14-11.32-22.63-7.79-8.86-17.64-12.51-29.48-10.37a66.51,66.51,0,0,0-19.87,7.19c-4.69,2.53-4.69,2.51-4.69-3,0-24.59.14-49.18,0-73.77-.12-21.22.68-42.46-.69-63.68a6,6,0,0,0-2.88-5.28c-1.92-1.2-3.72-2.6-5.58-3.89Q983.07,18.71,961.06,3.63c-1.27-.92-2.57-2.67-4.16-1.92-1.92.9-.74,3.12-1,4.75a8,8,0,0,0,0,1.2v229.7c0,1.47-.07,2.94,0,4.41a6.69,6.69,0,0,1-1.46,4.47,106.89,106.89,0,0,1-10.1,11.88c-.58.62-1.15,1.54-2.58,1.26-.57-1.54-.28-3.27-.28-4.94q0-124.06-.05-248.14c0-6.3.55-6.21-6-6.21H593.9c-5.75,0-5.5-.5-5.5,5.36V337a28.11,28.11,0,0,1-.16,4c-.17,1.14-.92,1.64-2,.87a20.81,20.81,0,0,1-1.83-1.55q-6.52-5.62-13.08-11.2-17.87-15.1-35.68-30.33l-23.74-20.28q-15.37-13.12-30.79-26.2-9.3-7.91-18.69-15.71c-2.63-2.18-2.72-2.17-5.18.35-3.12,3.15-6.05,6.41-9.12,9.58Q420.52,275,392.87,303.43,376,320.81,359,338.16c-.89.9-1.53,2.22-3.29,2.33-.82-1.6-.44-3.35-.45-5V6c0-6.1.31-5.88-5.92-5.88H6.2C-.52.09,0-.24,0,6.48Q0,388.34.07,770.14c0,6.77-.68,6.08,5.93,6.08H344.39a10.68,10.68,0,0,1,1.6,0,6,6,0,0,0,5.61-2.33c3.15-3.63,6.45-7.13,9.65-10.71q15.13-17.08,30.35-34.09c7.63-8.56,15.35-17.05,23-25.62L452.4,661c2.34-2.59,4.6-5.23,7-7.73,1.87-1.93,2.2-1.86,4.25,0,.4.35.76.75,1.14,1.12,30,29.67,59.6,59.83,89.9,89.24q14.65,14.26,28.91,28.91a11.49,11.49,0,0,0,9.09,3.78q171.59-.08,343.15-.08h2c3.58-.08,3.65-.08,3.65-3.56q.07-7.81.07-15.63V559.87q-.12-57.14-.12-114.25c0-.79-.54-1.89.83-2.4a16.58,16.58,0,0,1,1.3,1.48,167.86,167.86,0,0,0,10.56,14.58,12.11,12.11,0,0,1,2.72,8.49c-.54,31.37.92,62.76-.88,94.11V772.74c.09,2.82.54,3.11,3,1.68,4.61-2.7,9.17-5.47,13.75-8.21q18.71-11.25,37.45-22.43c2.1-1.25,3.33-2.75,3.39-5.4.31-12.7-1-25.39.91-38,.28-31.38-.67-62.78.69-94.15.16-3.9-.74-7.69-.74-11.56V492.45c0-4.4,0-4.32,4-5.55,9.61-3,18.06-7.94,24.61-15.69a31,31,0,0,0,7.18-24.65c-1.28-10.39-5.73-19.6-11.42-28.27-5.88-9-13.24-16.68-21-24a10.13,10.13,0,0,1-3.41-8.09q.11-42.09.07-84.18c0-8.44-.75-6.43,5.36-12.9.61-.68,1.31-1.3,2-1.93,7.65-7.06,15.82-13.48,23.87-20.06,11.23-9.24,22.21-18.62,29-32C1078.86,226.88,1081,218.54,1079.43,209.29Zm-14.71,29.34c-7.3,9.31-16.32,16.83-25.39,24.31-9.77,8-19.86,15.72-28.56,25a313.11,313.11,0,0,0-21,25.69c-8.76,11.54-17.47,23.2-26.55,34.54-2,2.54-2.11,2.6.36,4.83,10.39,9.38,20.82,18.73,30.82,28.54,9.33,9.15,18.75,18.21,27.84,27.59a80.2,80.2,0,0,1,19.11,31.07c3.68,11.37,2.09,21.77-8.32,30.66-8.78,7.52-19.18,11.22-30.78,11.86s-21.39-3.83-29.69-11.67c-8.76-8.33-15.67-18.16-22.53-28-6-8.6-11.78-17.4-18.58-25.45V769.35H597L465,633.53l-120,134H9V11.06H345l-6.05,364L459.1,255.1,600,370.59V11.06H931.45V273.59a17.2,17.2,0,0,0,6.22-1.91c5.56-2.84,9.91-7.14,14-11.75,6.56-7.39,12.12-15.55,18.12-23.39,12.38-16.22,26.28-30.82,43.28-42.29a78.13,78.13,0,0,1,22.31-10.62c11.69-3.33,22.17-.6,29.75,9.58,4.56,6.12,7.86,12.68,8.39,20.37C1074.2,223.17,1070.48,231.29,1064.72,238.63Z" transform="translate(0.02 0.01)"/><path class="cls-3" d="M903,605.37c-5.44-8.87-12-17-18.32-25.23A81.43,81.43,0,0,0,864,561c-13.39-8.67-27.85-15.17-42.48-21.39a102.61,102.61,0,0,0-28.58-7.17c-9.53-1.12-19.11-1.91-28.61-3.31-7-1-13.92-2.58-20.2-6.08-3.5-2-3.54-2.18-1.56-5.44Q756.23,495,770,472.45q8.93-14.7,17.82-29.44c5.67-9.36,11.48-18.63,17-28.08,4.36-7.46,9-14.84,10.28-23.68a41.74,41.74,0,0,0-1.72-20.11c-3.92-11-11.33-19.5-19.57-27.4a32.58,32.58,0,0,0-9.52-6.52c-8.8-3.8-17.49-2.68-26,1-9.73,4.19-17.63,10.87-24.91,18.41C720.5,370,710,385,700.18,400.61a118.86,118.86,0,0,0-12.61,25.83c-1,2.93-2.22,3.16-4.13.79a46.77,46.77,0,0,1-6-9.47c-3.86-8.18-7.59-16.43-11.34-24.66a40.42,40.42,0,0,0-9.46-13.25,21.19,21.19,0,0,0-29.94,1,21.52,21.52,0,0,0-2.84,3.82c-8.36,14.07-10.48,29.26-7.06,45.11,2.72,12.36,6.2,24.53,7.2,37.24.53,6.51.76,13,1.23,19.53.54,7.48-.38,14.94-.62,22.4-.24,7.74-1.22,15.4-2.08,23.08-.73,6.61-2,13.18-2.45,19.81-.87,13.71-1.39,27.45-1.9,41.18-.18,4.68-.73,9.3-1.34,13.92-1.36,10.43-3,20.82-4.2,31.27-1.27,10.85-2.23,21.74-3.27,32.61-1.15,11.94-2.33,23.89-2.56,35.9-.22,11.38.15,22.69,4.6,33.43,3.63,8.76,9,16,17.59,20.5s18.73,4.53,25.9-5.21a65.1,65.1,0,0,0,9.59-20.1c1.86-6.11,3.49-12.3,5.35-18.42a295.73,295.73,0,0,0,10.21-48.37c1.26-9.92,2-19.9,3.28-29.81,1.09-8.6,2.43-17.17,5.91-25.23a30.38,30.38,0,0,1,12.54-14.64A59.66,59.66,0,0,1,720.93,592c8.25-1.57,16.6-2.42,24.93-3.39a313,313,0,0,1,34.75-2.11c9.33.1,18.67.12,27.95,1.29,9.62,1.21,18.21,4.71,25.45,11.41a66,66,0,0,1,16.68,25.06,57.43,57.43,0,0,1,4.06,24.66,197.42,197.42,0,0,1-4.17,28,115.86,115.86,0,0,0-2.28,14.59c-1.15,13.15,2.72,24.46,12.12,33.79,7.8,7.73,17.08,9.52,27.27,6.12,7.72-2.58,14-7.37,19.46-13.47,10.78-11.94,15.63-26.24,17.19-41.79,1.08-10.84-.53-21.54-3.4-32C917.14,630.19,910.51,617.56,903,605.37Z" transform="translate(0.02 0.01)"/><path class="cls-3" d="M1073.52,211.74c-.53-7.69-3.83-14.25-8.39-20.37-7.58-10.18-18.06-12.91-29.75-9.58a78.13,78.13,0,0,0-22.31,10.62c-17,11.47-30.9,26.07-43.28,42.29-6,7.84-11.56,16-18.12,23.39-4.09,4.61-8.44,8.91-14,11.75-7.53,3.84-13.64,1.84-18.06-3.94a43,43,0,0,1-4.73-8.32c-4.31-9.4-5.72-19.34-5.75-29.57,0-4.92-.26-9.85-.35-14.77-.23-11.6,0-23.22-1.19-34.79-.79-7.81-1.17-15.67-4.62-23-2.17-4.58-5.51-7.41-10.6-8-1.33-.15-2.66-.22-4-.29-3.16-.18-6.58.38-9.42-.65-4.3-1.58-6.77.12-9.33,3A63.08,63.08,0,0,0,859.17,166c-3.94,9-6,18.4-8,28-3,14.47-3.6,29.1-4.23,43.74-.69,15.75-.15,31.53,0,47.29.12,12.56-.65,25.08-1.22,37.61-.49,10.93-1.28,21.84-2.12,32.75-.41,5.46-.5,10.93-1,16.37-.76,8.79-1.19,17.59-1.41,26.38-.29,12.13-.69,24.26-.32,36.41s1.08,24.23,2.56,36.29c.61,5,1,10.08,1.7,15.1.9,6.86,1.1,13.81,2.54,20.6,1.8,8.43,7.08,15,15.37,16.59a42,42,0,0,0,18.25-.72c10.21-2.57,17.55-8.49,21.6-18.42a67.15,67.15,0,0,0,4.57-21.39c.4-5.31.13-10.67.13-18.23h0c-.73-11.45.95-24.92,3.22-38.36,1.22-7.22,2.2-14.49,3.19-21.74.44-3.19,1.29-3.61,4-1.63a73.75,73.75,0,0,1,12.13,11.56c7.38,8.46,13.48,17.85,19.88,27,6.86,9.84,13.77,19.67,22.53,28,8.3,7.84,18.09,12.31,29.69,11.67s22-4.34,30.78-11.86c10.41-8.89,12-19.29,8.32-30.66a80.2,80.2,0,0,0-19.11-31.07c-9.09-9.38-18.51-18.44-27.84-27.59-10-9.81-20.43-19.16-30.82-28.54-2.47-2.23-2.39-2.29-.36-4.83,9.08-11.34,17.79-23,26.55-34.54a311.44,311.44,0,0,1,21-25.69c8.7-9.28,18.79-17,28.56-25,9.07-7.48,18.09-15,25.39-24.31C1070.48,229.45,1074.2,221.33,1073.52,211.74Z" transform="translate(0.02 0.01)"/></svg>