<svg id="Layer_1" data-name="Layer 1" xmlns="http://www.w3.org/2000/svg" viewBox="0 0 1080 776.32"><defs><style>.cls-1{fill:#fff;}.cls-2{fill:#03a9f5;}</style></defs><title>Logo WKK</title><path class="cls-1" d="M355.73,476.5c-.82-1.6-.44-3.35-.44-5q0-164.76,0-329.52c0-6.1.31-5.88-5.92-5.88H6.21c-6.72,0-6.2-.33-6.2,6.39Q0,524.33,0,906.16c0,6.77-.68,6.08,5.93,6.08H344.29a12.18,12.18,0,0,1,1.6,0,6,6,0,0,0,5.61-2.33c3.15-3.63,6.45-7.13,9.65-10.71q15.18-17,30.35-34.09c7.65-8.56,15.37-17,23-25.62q18.93-21.21,37.8-42.47c2.31-2.59,4.57-5.23,7-7.73,1.87-2,2.2-1.89,4.25,0,.4.35.76.75,1.14,1.12,30.05,29.67,59.6,59.83,89.9,89.24q14.67,14.24,28.91,28.91a11.5,11.5,0,0,0,9.09,3.78q171.57-.15,343.15-.08h2c3.58-.08,3.62-.08,3.65-3.56q.08-7.82.07-15.63V700.64c0-1.61,0-3.21,0-4.81q-.08-57.14-.12-114.25c0-.79-.54-1.89.83-2.4a16.58,16.58,0,0,1,1.3,1.48A167.86,167.86,0,0,0,954,595.24a12.11,12.11,0,0,1,2.72,8.49c-.54,31.37.92,62.76-.88,94.11q0,104,0,208.06c0,.93,0,1.87,0,2.8.12,2.82.57,3.11,3,1.68,4.61-2.7,9.17-5.47,13.75-8.21q18.74-11.22,37.45-22.43c2.1-1.25,3.33-2.75,3.39-5.4.31-12.65-1-25.34.91-38,.28-31.38-.67-62.78.69-94.15.16-3.9-.75-7.69-.74-11.56V628.46c0-4.4,0-4.32,4-5.55,9.64-3,18.06-7.94,24.61-15.69a31,31,0,0,0,7.18-24.65c-1.28-10.39-5.73-19.6-11.42-28.27-5.89-9-13.25-16.69-21-24a10.14,10.14,0,0,1-3.41-8.09c.11-28.06,0-56.12.07-84.18,0-8.44-.75-6.43,5.36-12.9.64-.68,1.34-1.3,2-1.93,7.65-7.05,15.82-13.48,23.87-20.06,11.28-9.23,22.26-18.61,29-32,4.18-8.25,6.36-16.59,4.75-25.84-1.52-8.71-5.63-16.14-11.32-22.63-7.79-8.86-17.64-12.51-29.48-10.37a66.59,66.59,0,0,0-19.87,7.19c-4.67,2.52-4.69,2.5-4.69-3,0-24.59.11-49.18,0-73.77-.12-21.22.68-42.46-.69-63.68-.15-2.41-.88-4-2.88-5.28s-3.72-2.6-5.58-3.89Q983,154.74,961.07,139.63c-1.27-.87-2.57-2.67-4.16-1.92-1.89.9-.71,3.12-1,4.75a8,8,0,0,0,0,1.2l0,229.7c0,1.47-.07,2.94,0,4.41a6.69,6.69,0,0,1-1.46,4.47,106,106,0,0,1-10.1,11.88c-.63.62-1.15,1.54-2.58,1.26-.57-1.54-.28-3.27-.28-4.94q0-124.06-.05-248.14c0-6.3.55-6.21-6-6.21H593.89c-5.75,0-5.5-.5-5.5,5.36V473a28.06,28.06,0,0,1-.16,4c-.16,1.14-.91,1.64-2,.87a22.38,22.38,0,0,1-1.83-1.55q-6.54-5.61-13.08-11.2-17.83-15.17-35.68-30.33-11.89-10.11-23.74-20.28-15.37-13.11-30.79-26.2-9.3-7.89-18.69-15.71c-2.63-2.18-2.72-2.17-5.18.35-3.08,3.15-6.05,6.41-9.12,9.58Q420.52,411,392.87,439.44,376,456.84,359,474.17C358.13,475.07,357.49,476.39,355.73,476.5ZM369.05,136c-.13,1.45-.26,2.23-.26,3,.11,100.31-.27,200.62.2,300.93a.53.53,0,0,0,.2.32,3.69,3.69,0,0,0,.54.3c1.36-.39,2.2-1.66,3.2-2.66,14.71-14.76,29.34-29.59,44.16-44.24a11.72,11.72,0,0,0,3.71-9.18q-.15-86.56-.07-173.12c0-10.95-.07-21.91,0-32.86a7.44,7.44,0,0,0-3.43-6.69c-12.56-9.27-25-18.77-37.48-28.09C376.49,141.23,373.31,138.4,369.05,136Zm8.76,765.09a2.85,2.85,0,0,0,2.91-.2q10.9-5,21.82-10.06l66.25-30.43a14.75,14.75,0,0,0,3.48-1.94q10.19-8.73,20.23-17.61c2.54-2.25,2.49-2.42.19-4.71q-13.62-13.57-27.3-27.11c-2.67-2.63-3.2-2.63-5.78.2-5.13,5.62-10.19,11.3-15.24,17C435,836.8,425.66,847.44,416.24,858c-10.85,12.14-21.8,24.19-32.68,36.31C381.63,896.45,379.82,898.71,377.81,901.1ZM482,371.48c1,2.2,2.82,3.37,4.4,4.69,3.9,3.24,7.85,6.42,11.76,9.65q20.37,16.8,40.72,33.64l28.68,23.7q2.31,1.92,4.64,3.82c.52.42,1.09.91,1.77.69,1-.32.8-1.26.83-2s0-1.61,0-2.41c0-10.15-.16-20.31.09-30.45a8.65,8.65,0,0,0-3.77-7.77c-5.28-4.08-10.4-8.35-15.57-12.57-4.32-3.52-8.43-6.93-14.33-8.15-18-3.73-35.91-8.1-53.86-12.12C485.81,371.81,484.17,371,482,371.48Z" transform="translate(0 -136.01)"/><path class="cls-2" d="M355.73,476.5c1.76-.11,2.4-1.43,3.29-2.33q17-17.34,33.85-34.73,27.64-28.44,55.26-56.93c3.07-3.17,6-6.43,9.12-9.58,2.46-2.52,2.55-2.53,5.18-.35q9.39,7.8,18.69,15.71,15.42,13.08,30.79,26.2,11.88,10.14,23.74,20.28Q553.47,450,571.33,465.1q6.55,5.58,13.08,11.2a22.38,22.38,0,0,0,1.83,1.55c1.08.77,1.83.27,2-.87a28.06,28.06,0,0,0,.16-4V141.46c0-5.86-.25-5.36,5.5-5.36H935.43c6.55,0,6-.09,6,6.21q0,124.07.05,248.14c0,1.67-.29,3.4.28,4.94,1.43.28,2-.64,2.58-1.26a106,106,0,0,0,10.1-11.88,6.69,6.69,0,0,0,1.46-4.47c-.07-1.47,0-2.94,0-4.41l0-229.7a8,8,0,0,1,0-1.2c.26-1.63-.92-3.85,1-4.75,1.59-.75,2.89,1,4.16,1.92q22,15.08,43.86,30.23c1.86,1.29,3.66,2.69,5.58,3.89s2.73,2.87,2.88,5.28c1.37,21.22.57,42.46.69,63.68.14,24.59,0,49.18,0,73.77,0,5.51,0,5.53,4.69,3a66.59,66.59,0,0,1,19.87-7.19c11.84-2.14,21.69,1.51,29.48,10.37,5.69,6.49,9.8,13.92,11.32,22.63,1.61,9.25-.57,17.59-4.75,25.84-6.79,13.38-17.77,22.76-29,32-8.05,6.58-16.22,13-23.87,20.06-.69.63-1.39,1.25-2,1.93-6.11,6.47-5.35,4.46-5.36,12.9,0,28.06,0,56.12-.07,84.18a10.14,10.14,0,0,0,3.41,8.09c7.76,7.32,15.12,15,21,24,5.69,8.67,10.14,17.88,11.42,28.27a31,31,0,0,1-7.18,24.65c-6.55,7.75-15,12.73-24.61,15.69-4,1.23-4,1.15-4,5.55V730.68c0,3.87.9,7.66.74,11.56-1.36,31.37-.41,62.77-.69,94.15-1.92,12.61-.6,25.3-.91,38-.06,2.65-1.29,4.15-3.39,5.4q-18.74,11.18-37.45,22.43c-4.58,2.74-9.14,5.51-13.75,8.21-2.46,1.43-2.91,1.14-3-1.68,0-.93,0-1.87,0-2.8q0-104,0-208.06c1.8-31.35.34-62.74.88-94.11a12.11,12.11,0,0,0-2.72-8.49,167.86,167.86,0,0,1-10.56-14.58,16.58,16.58,0,0,0-1.3-1.48c-1.37.51-.83,1.61-.83,2.4q0,57.12.12,114.25c0,1.6,0,3.2,0,4.81V893.06q0,7.82-.07,15.63c0,3.48-.07,3.48-3.65,3.56h-2q-171.57,0-343.15.08a11.5,11.5,0,0,1-9.09-3.78q-14.25-14.65-28.91-28.91c-30.3-29.41-59.85-59.57-89.9-89.24-.38-.37-.74-.77-1.14-1.12-2.05-1.86-2.38-1.93-4.25,0-2.4,2.5-4.66,5.14-7,7.73q-18.9,21.24-37.8,42.47c-7.65,8.57-15.37,17.06-23,25.62q-15.21,17-30.35,34.09c-3.2,3.58-6.5,7.08-9.65,10.71a6,6,0,0,1-5.61,2.33,12.18,12.18,0,0,0-1.6,0H6c-6.61,0-5.93.69-5.93-6.08Q0,524.34,0,142.49c0-6.72-.52-6.39,6.2-6.39H349.36c6.23,0,5.92-.22,5.92,5.88q0,164.76,0,329.52C355.29,473.15,354.91,474.9,355.73,476.5Zm424.88,246c9.33.1,18.67.12,27.95,1.29,9.62,1.21,18.21,4.71,25.45,11.41a66,66,0,0,1,16.68,25.06,57.48,57.48,0,0,1,4.06,24.66,196.83,196.83,0,0,1-4.17,28,115.86,115.86,0,0,0-2.28,14.59c-1.15,13.15,2.72,24.46,12.12,33.79,7.8,7.73,17.08,9.52,27.27,6.12,7.72-2.58,14-7.37,19.46-13.47,10.78-11.94,15.63-26.24,17.19-41.79,1.08-10.84-.53-21.54-3.4-32.05-3.8-13.91-10.43-26.54-17.9-38.73-5.44-8.87-12-17-18.32-25.23A81.68,81.68,0,0,0,864,697c-13.39-8.67-27.85-15.17-42.48-21.39a102.61,102.61,0,0,0-28.58-7.17c-9.53-1.12-19.11-1.91-28.61-3.31-7-1-13.92-2.58-20.2-6.08-3.5-2-3.54-2.18-1.56-5.44Q756.23,631,770,608.46q8.92-14.7,17.82-29.44c5.67-9.36,11.48-18.63,17-28.08,4.36-7.46,9.05-14.84,10.28-23.68a41.81,41.81,0,0,0-1.72-20.11c-3.92-11-11.33-19.5-19.57-27.4a32.46,32.46,0,0,0-9.52-6.52c-8.8-3.8-17.49-2.68-26,1-9.73,4.19-17.63,10.87-24.91,18.41C720.5,506,710,521,700.18,536.62a118.87,118.87,0,0,0-12.61,25.83c-1,2.93-2.22,3.16-4.13.79a46.87,46.87,0,0,1-6-9.47c-3.86-8.18-7.59-16.43-11.34-24.66a40.39,40.39,0,0,0-9.46-13.25,21.18,21.18,0,0,0-32.78,4.79c-8.36,14.07-10.48,29.26-7.06,45.11C619.52,578.12,623,590.29,624,603c.53,6.51.76,13,1.23,19.53.54,7.48-.38,14.94-.62,22.4-.24,7.74-1.22,15.4-2.08,23.08-.73,6.61-2,13.18-2.45,19.81-.87,13.71-1.39,27.45-1.9,41.18-.18,4.68-.73,9.3-1.34,13.92-1.36,10.43-3,20.82-4.2,31.27-1.27,10.85-2.23,21.74-3.27,32.61-1.15,11.94-2.33,23.89-2.56,35.9-.22,11.38.15,22.69,4.6,33.43,3.63,8.76,9,16,17.59,20.5s18.73,4.53,25.9-5.21a65,65,0,0,0,9.59-20.1c1.86-6.11,3.49-12.3,5.35-18.42a295.51,295.51,0,0,0,10.21-48.37c1.26-9.92,2-19.9,3.28-29.81,1.09-8.6,2.43-17.17,5.91-25.23a30.32,30.32,0,0,1,12.54-14.64A59.57,59.57,0,0,1,720.93,728c8.25-1.57,16.6-2.42,24.93-3.39A312.56,312.56,0,0,1,780.61,722.5Zm127-120.27c-.73-11.45.95-24.92,3.22-38.36,1.22-7.22,2.2-14.49,3.19-21.74.44-3.19,1.29-3.61,4-1.63a74.15,74.15,0,0,1,12.13,11.56c7.38,8.46,13.48,17.85,19.88,27,6.86,9.84,13.77,19.67,22.53,28,8.3,7.84,18.09,12.31,29.69,11.67s22-4.34,30.78-11.86c10.41-8.89,12-19.29,8.32-30.66a80.1,80.1,0,0,0-19.11-31.07c-9.09-9.38-18.51-18.44-27.84-27.59-10-9.81-20.43-19.16-30.82-28.54-2.47-2.23-2.39-2.29-.36-4.83,9.08-11.34,17.79-23,26.55-34.54a313.23,313.23,0,0,1,21-25.69c8.7-9.28,18.79-17,28.56-25,9.07-7.48,18.09-15,25.39-24.31,5.76-7.34,9.48-15.46,8.8-25.05-.53-7.69-3.83-14.25-8.39-20.37-7.58-10.18-18.06-12.91-29.75-9.58a78.14,78.14,0,0,0-22.31,10.62c-17,11.47-30.9,26.07-43.28,42.29-6,7.84-11.56,16-18.12,23.39-4.09,4.61-8.44,8.91-14,11.75-7.53,3.84-13.64,1.84-18.06-3.94a43,43,0,0,1-4.73-8.32c-4.31-9.4-5.72-19.34-5.75-29.57,0-4.92-.26-9.85-.35-14.77-.23-11.6,0-23.22-1.19-34.79-.79-7.81-1.17-15.67-4.62-23-2.17-4.58-5.51-7.41-10.6-8-1.33-.15-2.66-.22-4-.29-3.16-.18-6.58.38-9.42-.65-4.3-1.58-6.77.12-9.33,3a63.15,63.15,0,0,0-10.45,16.5c-3.94,8.95-6,18.4-8,28-3,14.47-3.6,29.1-4.23,43.74-.69,15.75-.15,31.53,0,47.29.12,12.56-.65,25.08-1.22,37.61-.49,10.93-1.28,21.84-2.12,32.75-.41,5.46-.5,10.93-1,16.37-.76,8.79-1.19,17.59-1.41,26.38-.29,12.13-.69,24.26-.32,36.41s1.08,24.23,2.56,36.29c.61,5,1,10.08,1.7,15.1.9,6.86,1.1,13.81,2.54,20.6,1.8,8.43,7.08,15,15.37,16.59a41.87,41.87,0,0,0,18.25-.72c10.21-2.57,17.55-8.49,21.6-18.42a67.17,67.17,0,0,0,4.57-21.39C907.86,615.15,907.59,609.79,907.59,602.23Z" transform="translate(0 -136.01)"/><path class="cls-2" d="M369.05,136c4.26,2.39,7.44,5.22,10.82,7.73,12.53,9.32,24.92,18.82,37.48,28.09a7.44,7.44,0,0,1,3.43,6.69c-.12,10.95,0,21.91,0,32.86q0,86.56.07,173.12a11.72,11.72,0,0,1-3.71,9.18c-14.82,14.65-29.45,29.48-44.16,44.24-1,1-1.84,2.27-3.2,2.66a3.69,3.69,0,0,1-.54-.3.53.53,0,0,1-.2-.32c-.47-100.31-.09-200.62-.2-300.93C368.79,138.24,368.92,137.46,369.05,136Z" transform="translate(0 -136.01)"/><path class="cls-2" d="M377.81,901.1c2-2.39,3.82-4.65,5.75-6.8,10.88-12.12,21.83-24.17,32.68-36.31,9.42-10.55,18.74-21.19,28.13-31.76,5.05-5.69,10.11-11.37,15.24-17,2.58-2.83,3.11-2.83,5.78-.2q13.68,13.53,27.3,27.11c2.3,2.29,2.35,2.46-.19,4.71q-10,8.91-20.23,17.61a14.75,14.75,0,0,1-3.48,1.94l-66.25,30.43q-10.92,5-21.82,10.06A2.85,2.85,0,0,1,377.81,901.1Z" transform="translate(0 -136.01)"/><path class="cls-2" d="M482,371.48c2.13-.45,3.77.33,5.38.69,17.95,4,35.84,8.39,53.86,12.12,5.9,1.22,10,4.63,14.33,8.15,5.17,4.22,10.29,8.49,15.57,12.57a8.65,8.65,0,0,1,3.77,7.77c-.25,10.14-.09,20.3-.09,30.45,0,.8,0,1.6,0,2.41s.15,1.71-.83,2c-.68.22-1.25-.27-1.77-.69q-2.32-1.91-4.64-3.82l-28.68-23.7q-20.35-16.83-40.72-33.64c-3.91-3.23-7.86-6.41-11.76-9.65C484.86,374.85,483.08,373.68,482,371.48Z" transform="translate(0 -136.01)"/></svg>